<?xml version="1.0" encoding="utf-8"?>
<!-- Generator: Adobe Illustrator 23.0.3, SVG Export Plug-In . SVG Version: 6.00 Build 0)  -->
<svg version="1.1" id="Layer_1" xmlns="http://www.w3.org/2000/svg" xmlns:xlink="http://www.w3.org/1999/xlink" x="0px" y="0px"
	 viewBox="0 0 462.75 97.64" style="enable-background:new 0 0 462.75 97.64;" xml:space="preserve">
<style type="text/css">
	.st0{fill:#5B5255;}
	.st1{fill:#FFFFFF;}
	.st2{fill:#ED2024;}
</style>
<g>
	<path class="st0" d="M8,97.64c0-10.33,0-20.65,0-30.98c0-10.33,0-20.65,0-30.98h42.55c5.24,0,9.74,1.93,13.53,5.78
		c3.78,3.86,5.67,8.4,5.67,13.64c0,4.36-1.24,8.22-3.71,11.56c2.47,3.49,3.71,7.35,3.71,11.56c0,5.38-1.89,9.96-5.67,13.75
		c-3.78,3.78-8.29,5.67-13.53,5.67H8z M23.49,58.8h27.05c0.87,0,1.71-0.36,2.51-1.09c0.8-0.73,1.2-1.6,1.2-2.62
		c0-1.02-0.4-1.93-1.2-2.73c-0.8-0.8-1.64-1.2-2.51-1.2H23.49V58.8z M23.49,81.93h27.05c0.87,0,1.71-0.33,2.51-0.98
		c0.8-0.65,1.2-1.56,1.2-2.73c0-2.32-1.09-3.63-3.27-3.93c-1.6,0-5.45,0-11.56,0c-6.11,0-11.42,0-15.93,0V81.93z"/>
	<path class="st0" d="M72.36,35.68h15.49v61.96H72.36V35.68z"/>
	<path class="st0" d="M124.73,97.64c-8.58,0-15.89-3.02-21.93-9.05c-6.04-6.03-9.05-13.34-9.05-21.93c0-8.43,3.02-15.71,9.05-21.82
		c6.03-6.11,13.34-9.16,21.93-9.16h30.76v15.49h-30.76c-4.36,0-8.04,1.53-11.02,4.58c-2.98,3.05-4.47,6.69-4.47,10.91
		c0,4.36,1.49,8.04,4.47,11.02c2.98,2.98,6.65,4.47,11.02,4.47h30.76v15.49H124.73z"/>
	<path class="st0" d="M173.6,82.15h46.25v15.49c-10.33,0-20.66,0-30.98,0c-10.33,0-20.58,0-30.76,0V35.68c10.18,0,20.43,0,30.76,0
		c10.33,0,20.65,0,30.98,0v15.49H173.6v7.64h46.25V74.3H173.6V82.15z"/>
	<path class="st0" d="M245.6,53.35c-2.33,1.31-4.18,3.16-5.56,5.56c-1.38,2.4-2.07,4.98-2.07,7.75v30.98h-15.49V66.66
		c0-8.43,3.02-15.71,9.05-21.82c6.03-6.11,13.34-9.16,21.93-9.16h30.76v61.96h-15.27V51.17h-7.85v46.47H245.6V53.35z"/>
	<path class="st0" d="M317.82,35.68c8.43,0,15.67,3.05,21.71,9.16c6.03,6.11,9.05,13.38,9.05,21.82c0,8.58-3.02,15.89-9.05,21.93
		c-6.04,6.04-13.27,9.05-21.71,9.05c-8.58,0-15.89-3.02-21.93-9.05c-6.04-6.03-9.05-13.34-9.05-21.93c0-8.43,3.02-15.71,9.05-21.82
		C301.92,38.73,309.23,35.68,317.82,35.68z M317.82,51.17c-4.36,0-8.04,1.53-11.02,4.58c-2.98,3.05-4.47,6.69-4.47,10.91
		c0,4.36,1.49,8.04,4.47,11.02c2.98,2.98,6.65,4.47,11.02,4.47c4.22,0,7.85-1.49,10.91-4.47c3.05-2.98,4.58-6.65,4.58-11.02
		c0-4.22-1.53-7.85-4.58-10.91S322.03,51.17,317.82,51.17z"/>
	<path class="st1" d="M2.03,94.8C2.02,84.47,2.01,74.14,2,63.81C1.99,53.49,1.98,43.16,1.97,32.83l42.55-0.04
		c5.24,0,9.74,1.92,13.53,5.77c3.78,3.85,5.68,8.4,5.69,13.63c0,4.36-1.23,8.22-3.7,11.57c2.47,3.49,3.72,7.34,3.72,11.56
		c0,5.38-1.88,9.97-5.66,13.75c-3.78,3.79-8.29,5.68-13.52,5.68L2.03,94.8z M17.48,55.95l27.05-0.02c0.87,0,1.71-0.36,2.51-1.09
		c0.8-0.73,1.2-1.6,1.2-2.62c0-1.02-0.4-1.93-1.2-2.73c-0.8-0.8-1.64-1.2-2.51-1.2l-27.05,0.02L17.48,55.95z M17.5,79.07l27.05-0.02
		c0.87,0,1.71-0.33,2.51-0.98c0.8-0.66,1.2-1.56,1.2-2.73c0-2.32-1.09-3.63-3.28-3.92c-1.6,0-5.45,0-11.56,0.01
		C27.31,71.43,22,71.43,17.5,71.44L17.5,79.07z"/>
	<path class="st1" d="M66.33,32.77l15.49-0.01l0.06,61.96l-15.49,0.01L66.33,32.77z"/>
	<path class="st1" d="M118.75,94.69c-8.58,0.01-15.9-3-21.94-9.03c-6.04-6.03-9.07-13.34-9.07-21.92c-0.01-8.43,3-15.71,9.04-21.83
		c6.03-6.11,13.33-9.18,21.92-9.18l30.76-0.03l0.01,15.49l-30.76,0.03c-4.36,0-8.04,1.53-11.01,4.59c-2.98,3.06-4.47,6.7-4.46,10.91
		c0,4.36,1.5,8.04,4.48,11.01c2.98,2.98,6.66,4.47,11.02,4.46l30.76-0.03l0.01,15.49L118.75,94.69z"/>
	<path class="st1" d="M167.61,79.16l46.25-0.04l0.01,15.49c-10.33,0.01-20.66,0.02-30.98,0.03c-10.33,0.01-20.58,0.02-30.76,0.03
		l-0.06-61.96c10.18-0.01,20.43-0.02,30.76-0.03c10.33-0.01,20.65-0.02,30.98-0.03l0.01,15.49l-46.25,0.04l0.01,7.64l46.25-0.04
		l0.01,15.49L167.6,71.3L167.61,79.16z"/>
	<path class="st1" d="M239.58,50.29c-2.33,1.31-4.18,3.17-5.56,5.57c-1.38,2.4-2.07,4.99-2.07,7.75l0.03,30.98L216.5,94.6
		l-0.03-30.98c-0.01-8.43,3-15.71,9.04-21.83c6.03-6.11,13.33-9.18,21.92-9.18l30.76-0.03l0.06,61.96l-15.27,0.01l-0.04-46.47
		l-7.85,0.01l0.04,46.47l-15.49,0.01L239.58,50.29z"/>
	<path class="st1" d="M311.79,32.55c8.43-0.01,15.67,3.04,21.72,9.14c6.04,6.1,9.07,13.38,9.07,21.81
		c0.01,8.58-3.01,15.9-9.03,21.94c-6.03,6.04-13.27,9.07-21.7,9.07c-8.58,0.01-15.9-3-21.93-9.04c-6.04-6.03-9.07-13.34-9.08-21.92
		c-0.01-8.43,3-15.71,9.04-21.83C295.9,35.62,303.2,32.56,311.79,32.55z M311.8,48.04c-4.36,0-8.04,1.53-11.01,4.59
		c-2.98,3.06-4.47,6.7-4.46,10.91c0,4.36,1.5,8.04,4.48,11.01c2.98,2.98,6.66,4.47,11.02,4.46c4.22,0,7.85-1.5,10.91-4.48
		c3.05-2.98,4.58-6.66,4.57-11.02c0-4.22-1.53-7.85-4.59-10.9C319.66,49.56,316.02,48.04,311.8,48.04z"/>
	<path class="st2" d="M0,93.64c0-10.33,0-20.65,0-30.98c0-10.33,0-20.65,0-30.98h42.55c5.24,0,9.74,1.93,13.53,5.78
		c3.78,3.86,5.67,8.4,5.67,13.64c0,4.36-1.24,8.22-3.71,11.56c2.47,3.49,3.71,7.35,3.71,11.56c0,5.38-1.89,9.96-5.67,13.75
		c-3.78,3.78-8.29,5.67-13.53,5.67H0z M15.49,54.8h27.05c0.87,0,1.71-0.36,2.51-1.09c0.8-0.73,1.2-1.6,1.2-2.62
		c0-1.02-0.4-1.93-1.2-2.73c-0.8-0.8-1.64-1.2-2.51-1.2H15.49V54.8z M15.49,77.93h27.05c0.87,0,1.71-0.33,2.51-0.98
		c0.8-0.65,1.2-1.56,1.2-2.73c0-2.32-1.09-3.63-3.27-3.93c-1.6,0-5.45,0-11.56,0c-6.11,0-11.42,0-15.93,0V77.93z"/>
	<path class="st2" d="M64.36,31.68h15.49v61.96H64.36V31.68z"/>
	<path class="st2" d="M116.73,93.64c-8.58,0-15.89-3.02-21.93-9.05c-6.04-6.03-9.05-13.34-9.05-21.93c0-8.43,3.02-15.71,9.05-21.82
		c6.03-6.11,13.34-9.16,21.93-9.16h30.76v15.49h-30.76c-4.36,0-8.04,1.53-11.02,4.58c-2.98,3.05-4.47,6.69-4.47,10.91
		c0,4.36,1.49,8.04,4.47,11.02c2.98,2.98,6.65,4.47,11.02,4.47h30.76v15.49H116.73z"/>
	<path class="st2" d="M165.6,78.15h46.25v15.49c-10.33,0-20.66,0-30.98,0c-10.33,0-20.58,0-30.76,0V31.68c10.18,0,20.43,0,30.76,0
		c10.33,0,20.65,0,30.98,0v15.49H165.6v7.64h46.25V70.3H165.6V78.15z"/>
	<path class="st2" d="M237.6,49.35c-2.33,1.31-4.18,3.16-5.56,5.56c-1.38,2.4-2.07,4.98-2.07,7.75v30.98h-15.49V62.66
		c0-8.43,3.02-15.71,9.05-21.82c6.03-6.11,13.34-9.16,21.93-9.16h30.76v61.96h-15.27V47.17h-7.85v46.47H237.6V49.35z"/>
	<path class="st2" d="M309.82,31.68c8.43,0,15.67,3.05,21.71,9.16c6.03,6.11,9.05,13.38,9.05,21.82c0,8.58-3.02,15.89-9.05,21.93
		c-6.04,6.04-13.27,9.05-21.71,9.05c-8.58,0-15.89-3.02-21.93-9.05c-6.04-6.03-9.05-13.34-9.05-21.93c0-8.43,3.02-15.71,9.05-21.82
		C293.92,34.73,301.23,31.68,309.82,31.68z M309.82,47.17c-4.36,0-8.04,1.53-11.02,4.58c-2.98,3.05-4.47,6.69-4.47,10.91
		c0,4.36,1.49,8.04,4.47,11.02c2.98,2.98,6.65,4.47,11.02,4.47c4.22,0,7.85-1.49,10.91-4.47c3.05-2.98,4.58-6.65,4.58-11.02
		c0-4.22-1.53-7.85-4.58-10.91S314.03,47.17,309.82,47.17z"/>
	<path class="st0" d="M368.4,5.46l14.91,4.19L377,32.13l22.27,6.25l-4.13,14.7l-22.27-6.25l-6.31,22.48l-14.91-4.19l6.31-22.48
		l-22.27-6.25l4.13-14.7l22.27,6.25L368.4,5.46z"/>
	<path class="st1" d="M364.66,1.46l14.88,4.3l-6.48,22.43l22.22,6.42l-4.24,14.67l-22.22-6.42l-6.48,22.43l-14.88-4.3l6.48-22.43
		l-22.22-6.42l4.24-14.67l22.22,6.42L364.66,1.46z"/>
	<path class="st2" d="M364.03,0.47l14.83,4.46l-6.72,22.36l22.15,6.66l-4.4,14.63l-22.15-6.66l-6.72,22.36l-14.83-4.46l6.72-22.36
		l-22.15-6.66l4.4-14.63l22.15,6.66L364.03,0.47z"/>
	<path class="st0" d="M431.98,34.68c8.43,0,15.67,3.05,21.71,9.16c6.03,6.11,9.05,13.38,9.05,21.82c0,8.58-3.02,15.89-9.05,21.93
		c-6.04,6.04-13.28,9.05-21.71,9.05c-8.58,0-15.89-3.02-21.93-9.05c-6.04-6.03-9.05-13.34-9.05-21.93c0-8.43,3.02-15.71,9.05-21.82
		C416.09,37.73,423.4,34.68,431.98,34.68z M431.98,50.17c-4.36,0-8.04,1.53-11.02,4.58c-2.98,3.05-4.47,6.69-4.47,10.91
		c0,4.36,1.49,8.04,4.47,11.02c2.98,2.98,6.65,4.47,11.02,4.47c4.22,0,7.85-1.49,10.91-4.47c3.05-2.98,4.58-6.65,4.58-11.02
		c0-4.22-1.53-7.85-4.58-10.91C439.84,51.7,436.2,50.17,431.98,50.17z"/>
	<path class="st1" d="M426.98,32.68c8.43,0,15.67,3.05,21.71,9.16c6.03,6.11,9.05,13.38,9.05,21.82c0,8.58-3.02,15.89-9.05,21.93
		c-6.04,6.04-13.28,9.05-21.71,9.05c-8.58,0-15.89-3.02-21.93-9.05c-6.04-6.03-9.05-13.34-9.05-21.93c0-8.43,3.02-15.71,9.05-21.82
		C411.09,35.73,418.4,32.68,426.98,32.68z M426.98,48.17c-4.36,0-8.04,1.53-11.02,4.58c-2.98,3.05-4.47,6.69-4.47,10.91
		c0,4.36,1.49,8.04,4.47,11.02c2.98,2.98,6.65,4.47,11.02,4.47c4.22,0,7.85-1.49,10.91-4.47c3.05-2.98,4.58-6.65,4.58-11.02
		c0-4.22-1.53-7.85-4.58-10.91C434.84,49.7,431.2,48.17,426.98,48.17z"/>
	<path class="st2" d="M424.98,31.68c8.43,0,15.67,3.05,21.71,9.16c6.03,6.11,9.05,13.38,9.05,21.82c0,8.58-3.02,15.89-9.05,21.93
		c-6.04,6.04-13.27,9.05-21.71,9.05c-8.58,0-15.89-3.02-21.93-9.05c-6.04-6.03-9.05-13.34-9.05-21.93c0-8.43,3.02-15.71,9.05-21.82
		C409.09,34.73,416.4,31.68,424.98,31.68z M424.98,47.17c-4.36,0-8.04,1.53-11.02,4.58c-2.98,3.05-4.47,6.69-4.47,10.91
		c0,4.36,1.49,8.04,4.47,11.02c2.98,2.98,6.65,4.47,11.02,4.47c4.22,0,7.85-1.49,10.91-4.47c3.05-2.98,4.58-6.65,4.58-11.02
		c0-4.22-1.53-7.85-4.58-10.91C432.84,48.7,429.2,47.17,424.98,47.17z"/>
</g>
</svg>
